<?xml version="1.0" encoding="utf-8"?>
<!-- Generator: Adobe Illustrator 15.0.2, SVG Export Plug-In . SVG Version: 6.00 Build 0)  -->
<!DOCTYPE svg PUBLIC "-//W3C//DTD SVG 1.1//EN" "http://www.w3.org/Graphics/SVG/1.1/DTD/svg11.dtd">
<svg version="1.1" id="Layer_1" xmlns="http://www.w3.org/2000/svg" xmlns:xlink="http://www.w3.org/1999/xlink" x="0px" y="0px"
	 width="131px" height="131px" viewBox="0 0 131 131" enable-background="new 0 0 131 131" xml:space="preserve">
<path fill="none" d="M72.144,59.854c0.515-2.639,0.406-4.413-0.56-5.656c-0.908-1.13-2.434-1.659-4.921-1.659h-6.711l-5.215,26.848
	h6.673c2.487,0,4.249-0.527,5.608-1.697c1.537-1.314,2.359-3.204,2.95-6.261c0.326-1.661,0.602-3.693-0.435-5.129
	c-0.297-0.413-0.723-0.75-1.243-0.978c0.568-0.226,1.08-0.527,1.576-0.942C71.309,63.172,71.792,61.667,72.144,59.854z
	 M65.752,71.395c-0.607,3.129-1.721,4.188-4.019,4.188h-2.034l1.625-8.375h2.04C65.627,67.208,66.334,68.414,65.752,71.395z
	 M67.9,59.969c-0.499,2.563-1.656,3.658-3.881,3.658h-1.999l1.414-7.28h1.998C67.696,56.346,68.428,57.253,67.9,59.969z"/>
<path fill="none" d="M65.5,7.38c-32.597,0-59.12,26.523-59.12,59.118c0,32.602,26.522,59.117,59.12,59.117
	c3.369,0,6.672-0.284,9.889-0.828l5.97-29.876L16.073,75.277l18.429-9.258l-14.827-9.261l72.88-19.438l0.787-4.056l-7.095-2.12
	l0.633-3.258l8.422,2.523l9.406-2.523l-0.633,3.258l-7.92,2.12l-17.509,90.876c26.285-5.995,45.969-29.561,45.969-57.644
	C124.615,33.903,98.1,7.38,65.5,7.38z"/>
<polygon fill="none" points="78.89,90.731 81.994,91.672 91.922,40.579 88.459,41.505 "/>
<path fill="none" d="M29.546,140.95c0.314-1.611,0.249-2.695-0.341-3.455c-0.556-0.689-1.486-1.013-3.007-1.013H22.1l-3.187,16.4
	h4.076c1.52,0,2.597-0.322,3.427-1.037c0.938-0.804,1.44-1.957,1.802-3.824c0.199-1.015,0.368-2.255-0.266-3.133
	c-0.182-0.253-0.44-0.458-0.76-0.598c0.349-0.138,0.66-0.322,0.964-0.575C29.037,142.978,29.331,142.058,29.546,140.95z M25.643,148
	c-0.372,1.911-1.052,2.559-2.456,2.559h-1.242l0.993-5.116h1.246C25.565,145.442,25.997,146.18,25.643,148z M26.954,141.021
	c-0.305,1.566-1.012,2.234-2.37,2.234h-1.222l0.864-4.447h1.221C26.83,138.808,27.277,139.362,26.954,141.021z"/>
<path fill="none" d="M25.487,108.896c-19.911,0-36.113,16.201-36.113,36.112c0,19.914,16.202,36.111,36.113,36.111
	c2.06,0,4.077-0.174,6.041-0.506l3.647-18.25l-39.881-11.992l11.258-5.656l-9.058-5.656l44.521-11.873l0.48-2.478l-4.334-1.295
	l0.387-1.99l5.145,1.541l5.746-1.541l-0.387,1.99l-4.838,1.295l-10.696,55.512c16.058-3.662,28.08-18.058,28.08-35.212
	C61.599,125.098,45.401,108.896,25.487,108.896z"/>
<polygon fill="none" points="33.668,159.812 35.564,160.387 41.629,129.176 39.513,129.741 "/>
<g>
	<path fill="#FFFFFF" d="M65.498,2C30.873,2,2.703,30.172,2.703,64.794c0,34.627,28.17,62.797,62.795,62.797
		c34.625,0,62.799-28.17,62.799-62.797C128.297,30.172,100.123,2,65.498,2z M78.102,120.057l16.789-87.121l7.594-2.032l0.605-3.124
		l-9.018,2.418l-8.074-2.418l-0.605,3.124l6.801,2.032l-0.754,3.889L21.565,55.458l14.216,8.876l-17.668,8.878l62.591,18.822
		l-5.725,28.641c-3.08,0.521-6.248,0.795-9.481,0.795c-31.25,0-56.678-25.42-56.678-56.676c0-31.249,25.429-56.676,56.678-56.676
		c31.254,0,56.674,25.427,56.674,56.676C122.172,91.719,103.305,114.309,78.102,120.057z M81.314,88.93l-2.977-0.902l9.172-47.194
		l3.322-0.888L81.314,88.93z M69.367,64.606c0.996,1.378,0.729,3.326,0.416,4.917c-0.566,2.932-1.355,4.74-2.828,6.002
		c-1.303,1.123-2.993,1.627-5.378,1.627H55.18l5.001-25.739h6.432c2.387,0,3.846,0.507,4.721,1.589
		c0.926,1.192,1.027,2.894,0.533,5.422c-0.338,1.738-0.797,3.183-2.18,4.341c-0.477,0.397-0.967,0.687-1.514,0.903
		C68.676,63.887,69.082,64.209,69.367,64.606z"/>
	<path fill="#FFFFFF" d="M63.452,65.475h-1.956l-1.559,8.031h1.95c2.204,0,3.27-1.016,3.855-4.016
		C66.297,66.633,65.62,65.475,63.452,65.475z"/>
	<path fill="#FFFFFF" d="M65.435,55.062h-1.916l-1.356,6.979h1.917c2.132,0,3.242-1.048,3.721-3.506
		C68.309,55.933,67.605,55.062,65.435,55.062z"/>
</g>
<rect x="-132" y="-39.667" fill="none" width="366" height="342.333"/>
</svg>
